# xmcd
#
# Track frame offsets:
#	150
#	14012
#	29780
#	60352
#	72954
#	92489
#	108567
#	118967
#	133204
#	148395
#	170092
#	183029
#	191903
#	207438
#	227865
#	245670
#	256890
#	286389
#	301838
#	318741
#	334400
#
# Disc length: 4639
#
# Revision: 1
# Processed by: cddbd v1.5.1PL0 Copyright (c) Steve Scherf et al.
# Submitted via: VisiTrax 2.9.5.180 - For more info visit www.synapsa.com
# Normalized: r0:DSETVAR1
#
DISCID=54121d15
DTITLE=Various Artist - lady sings the blues
DYEAR=2002
DGENRE=
TTITLE0=Norah Jones - Don't Know Why
TTITLE1=Dusty Springfield - The Look Of Love
TTITLE2=Sanna Salomonsen - New York Minute
TTITLE3=Julie London - Cry Me A River
TTITLE4=Søs Fenger - I'll Be Seeing You
TTITLE5=Dinah Shore - My Funny Valentine
TTITLE6=Dinah Wassington - Call Me Irresponsible
TTITLE7=Cæcilie Norby - What Do You See In Her
TTITLE8=Peggy Lee - Fever
TTITLE9=Cassandra Wilson - I'm So Lonesome I Could Cry
TTITLE10=Sarah Vaughan - 'Round Midnight
TTITLE11=Nancy Wilson - Wives And Lovers
TTITLE12=Lisa Ekdahl - How Many More Times
TTITLE13=Gladys Knight and The Pips - Midnight Train To Georgia
TTITLE14=Millie Jackson - (If Loving You Is Wrong) I Don't Want To Be Right
TTITLE15=Lena Horne - In Love In Vane
TTITLE16=Ruby Turner - I'd Rather Go Blind
TTITLE17=Nina Simone - Wild Is The Wind
TTITLE18=Billie Holiday - Lady Sings The Blues
TTITLE19=Tina Turner - Night Time Is The Right Time
TTITLE20=Erma Thomas - I've Been Loving You Too Long
EXTD=
EXTT0=
EXTT1=
EXTT2=
EXTT3=
EXTT4=
EXTT5=
EXTT6=
EXTT7=
EXTT8=
EXTT9=
EXTT10=
EXTT11=
EXTT12=
EXTT13=
EXTT14=
EXTT15=
EXTT16=
EXTT17=
EXTT18=
EXTT19=
EXTT20=
PLAYORDER=
